<mxfile host="app.diagrams.net" modified="2021-02-11T19:39:55.673Z" agent="5.0 (Windows NT 10.0; Win64; x64) AppleWebKit/537.36 (KHTML, like Gecko) Chrome/88.0.4324.150 Safari/537.36" etag="6eAWE0M5ExAREANjf0yn" version="14.2.9" type="github">
  <diagram id="kgpKYQtTHZ0yAKxKKP6v" name="Page-1">
    <mxGraphModel dx="1248" dy="677" grid="1" gridSize="10" guides="1" tooltips="1" connect="1" arrows="1" fold="1" page="1" pageScale="1" pageWidth="850" pageHeight="1100" math="0" shadow="0">
      <root>
        <mxCell id="0" />
        <mxCell id="1" parent="0" />
        <mxCell id="3nuBFxr9cyL0pnOWT2aG-1" value="TalkShopLive App" style="shape=umlLifeline;perimeter=lifelinePerimeter;container=1;collapsible=0;recursiveResize=0;rounded=0;shadow=0;strokeWidth=1;" parent="1" vertex="1">
          <mxGeometry x="180" y="90" width="100" height="330" as="geometry" />
        </mxCell>
        <mxCell id="3nuBFxr9cyL0pnOWT2aG-5" value="TalkShopLive App Server" style="shape=umlLifeline;perimeter=lifelinePerimeter;container=1;collapsible=0;recursiveResize=0;rounded=0;shadow=0;strokeWidth=1;" parent="1" vertex="1">
          <mxGeometry x="340" y="90" width="140" height="340" as="geometry" />
        </mxCell>
        <mxCell id="3nuBFxr9cyL0pnOWT2aG-8" value="update subscription plan" style="verticalAlign=bottom;endArrow=block;entryX=0.483;entryY=0.227;shadow=0;strokeWidth=1;entryDx=0;entryDy=0;entryPerimeter=0;exitX=0.5;exitY=0.227;exitDx=0;exitDy=0;exitPerimeter=0;" parent="1" source="3nuBFxr9cyL0pnOWT2aG-1" target="3nuBFxr9cyL0pnOWT2aG-5" edge="1">
          <mxGeometry relative="1" as="geometry">
            <mxPoint x="135" y="160.0000000000001" as="sourcePoint" />
            <mxPoint x="305" y="160.0000000000001" as="targetPoint" />
          </mxGeometry>
        </mxCell>
        <mxCell id="3nuBFxr9cyL0pnOWT2aG-9" value="recurring charge response" style="verticalAlign=bottom;endArrow=block;shadow=0;strokeWidth=1;exitX=0.5;exitY=0.467;exitDx=0;exitDy=0;exitPerimeter=0;entryX=0.506;entryY=0.444;entryDx=0;entryDy=0;entryPerimeter=0;" parent="1" source="ayR7XXcj4JQ6BO8CJsRj-3" target="ayR7XXcj4JQ6BO8CJsRj-2" edge="1">
          <mxGeometry relative="1" as="geometry">
            <mxPoint x="745" y="230" as="sourcePoint" />
            <mxPoint x="582" y="227" as="targetPoint" />
          </mxGeometry>
        </mxCell>
        <mxCell id="ayR7XXcj4JQ6BO8CJsRj-1" value="&lt;font style=&quot;font-size: 20px&quot;&gt;Recurring Charge Flow&lt;/font&gt;" style="text;html=1;strokeColor=none;fillColor=none;align=center;verticalAlign=middle;whiteSpace=wrap;rounded=0;" vertex="1" parent="1">
          <mxGeometry x="330" y="40" width="260" height="20" as="geometry" />
        </mxCell>
        <mxCell id="ayR7XXcj4JQ6BO8CJsRj-2" value="TSL CMS" style="shape=umlLifeline;perimeter=lifelinePerimeter;container=1;collapsible=0;recursiveResize=0;rounded=0;shadow=0;strokeWidth=1;" vertex="1" parent="1">
          <mxGeometry x="520" y="90" width="120" height="340" as="geometry" />
        </mxCell>
        <mxCell id="ayR7XXcj4JQ6BO8CJsRj-3" value="Shopify API" style="shape=umlLifeline;perimeter=lifelinePerimeter;container=1;collapsible=0;recursiveResize=0;rounded=0;shadow=0;strokeWidth=1;" vertex="1" parent="1">
          <mxGeometry x="710" y="90" width="120" height="330" as="geometry" />
        </mxCell>
        <mxCell id="ayR7XXcj4JQ6BO8CJsRj-4" value="update Shopify subscriptionÂ " style="verticalAlign=bottom;endArrow=block;shadow=0;strokeWidth=1;" edge="1" parent="1" target="ayR7XXcj4JQ6BO8CJsRj-2">
          <mxGeometry relative="1" as="geometry">
            <mxPoint x="410" y="180" as="sourcePoint" />
            <mxPoint x="527.6199999999999" y="180.00000000000003" as="targetPoint" />
          </mxGeometry>
        </mxCell>
        <mxCell id="ayR7XXcj4JQ6BO8CJsRj-5" value="&lt;font style=&quot;font-size: 11px&quot;&gt;&lt;font style=&quot;font-size: 11px&quot;&gt;plan_id&lt;br&gt;return_ur&lt;/font&gt;l&lt;/font&gt;" style="text;html=1;strokeColor=none;fillColor=none;align=center;verticalAlign=middle;whiteSpace=wrap;rounded=0;" vertex="1" parent="1">
          <mxGeometry x="450" y="190" width="80" height="20" as="geometry" />
        </mxCell>
        <mxCell id="ayR7XXcj4JQ6BO8CJsRj-6" value="recurring charges" style="verticalAlign=bottom;endArrow=block;shadow=0;strokeWidth=1;entryX=0.499;entryY=0.333;entryDx=0;entryDy=0;entryPerimeter=0;" edge="1" parent="1" target="ayR7XXcj4JQ6BO8CJsRj-3">
          <mxGeometry relative="1" as="geometry">
            <mxPoint x="580" y="200" as="sourcePoint" />
            <mxPoint x="769.5" y="199.5" as="targetPoint" />
          </mxGeometry>
        </mxCell>
        <mxCell id="ayR7XXcj4JQ6BO8CJsRj-7" value="Shopify Admin" style="shape=umlLifeline;perimeter=lifelinePerimeter;container=1;collapsible=0;recursiveResize=0;rounded=0;shadow=0;strokeWidth=1;" vertex="1" parent="1">
          <mxGeometry x="40" y="90" width="100" height="330" as="geometry" />
        </mxCell>
        <mxCell id="ayR7XXcj4JQ6BO8CJsRj-9" value="confirm_url" style="verticalAlign=bottom;endArrow=block;shadow=0;strokeWidth=1;exitX=0.5;exitY=0.467;exitDx=0;exitDy=0;exitPerimeter=0;" edge="1" parent="1">
          <mxGeometry relative="1" as="geometry">
            <mxPoint x="581.08" y="251.8" as="sourcePoint" />
            <mxPoint x="410" y="250" as="targetPoint" />
          </mxGeometry>
        </mxCell>
        <mxCell id="ayR7XXcj4JQ6BO8CJsRj-10" value="confirm_url" style="verticalAlign=bottom;endArrow=block;shadow=0;strokeWidth=1;" edge="1" parent="1">
          <mxGeometry relative="1" as="geometry">
            <mxPoint x="411" y="270" as="sourcePoint" />
            <mxPoint x="230" y="270" as="targetPoint" />
          </mxGeometry>
        </mxCell>
        <mxCell id="ayR7XXcj4JQ6BO8CJsRj-11" value="window.top.location.href" style="verticalAlign=bottom;endArrow=block;shadow=0;strokeWidth=1;" edge="1" parent="1">
          <mxGeometry relative="1" as="geometry">
            <mxPoint x="231" y="300" as="sourcePoint" />
            <mxPoint x="90" y="300" as="targetPoint" />
          </mxGeometry>
        </mxCell>
        <mxCell id="ayR7XXcj4JQ6BO8CJsRj-12" value="&lt;font style=&quot;font-size: 11px&quot;&gt;= confirm_url&lt;/font&gt;" style="text;html=1;strokeColor=none;fillColor=none;align=center;verticalAlign=middle;whiteSpace=wrap;rounded=0;" vertex="1" parent="1">
          <mxGeometry x="100" y="300" width="100" height="20" as="geometry" />
        </mxCell>
        <mxCell id="ayR7XXcj4JQ6BO8CJsRj-13" value="redirect to return_url" style="verticalAlign=bottom;endArrow=block;shadow=0;strokeWidth=1;exitX=0.5;exitY=0.227;exitDx=0;exitDy=0;exitPerimeter=0;" edge="1" parent="1" target="3nuBFxr9cyL0pnOWT2aG-5">
          <mxGeometry relative="1" as="geometry">
            <mxPoint x="90" y="350" as="sourcePoint" />
            <mxPoint x="267.6199999999999" y="350" as="targetPoint" />
          </mxGeometry>
        </mxCell>
        <mxCell id="ayR7XXcj4JQ6BO8CJsRj-14" value="serve the page user left from" style="verticalAlign=bottom;endArrow=block;shadow=0;strokeWidth=1;" edge="1" parent="1">
          <mxGeometry relative="1" as="geometry">
            <mxPoint x="411" y="410" as="sourcePoint" />
            <mxPoint x="230" y="410" as="targetPoint" />
          </mxGeometry>
        </mxCell>
        <mxCell id="ayR7XXcj4JQ6BO8CJsRj-15" value="charge accepted/rejected" style="verticalAlign=bottom;endArrow=block;shadow=0;strokeWidth=1;exitX=0.5;exitY=0.227;exitDx=0;exitDy=0;exitPerimeter=0;" edge="1" parent="1">
          <mxGeometry relative="1" as="geometry">
            <mxPoint x="410" y="370" as="sourcePoint" />
            <mxPoint x="580" y="370" as="targetPoint" />
          </mxGeometry>
        </mxCell>
        <mxCell id="ayR7XXcj4JQ6BO8CJsRj-16" value="plan updated (or not)" style="verticalAlign=bottom;endArrow=block;shadow=0;strokeWidth=1;" edge="1" parent="1">
          <mxGeometry relative="1" as="geometry">
            <mxPoint x="580.5" y="400" as="sourcePoint" />
            <mxPoint x="410" y="400" as="targetPoint" />
          </mxGeometry>
        </mxCell>
        <mxCell id="ayR7XXcj4JQ6BO8CJsRj-17" value="&lt;font style=&quot;font-size: 11px&quot;&gt;App will load and refresh its state including user&#39;s subscription plan&lt;/font&gt;" style="text;html=1;strokeColor=none;fillColor=none;align=center;verticalAlign=middle;whiteSpace=wrap;rounded=0;" vertex="1" parent="1">
          <mxGeometry x="167.5" y="430" width="125" height="20" as="geometry" />
        </mxCell>
        <mxCell id="ayR7XXcj4JQ6BO8CJsRj-18" value="1) Always redirect to products even if coming from settings&lt;br&gt;2) If no plan, use free plan&lt;br&gt;3) Ping back with charge id" style="text;html=1;strokeColor=none;fillColor=none;align=left;verticalAlign=middle;whiteSpace=wrap;rounded=0;" vertex="1" parent="1">
          <mxGeometry x="80" y="510" width="345" height="80" as="geometry" />
        </mxCell>
        <mxCell id="ayR7XXcj4JQ6BO8CJsRj-19" value="1) Empty assume free&lt;br&gt;2) Always choose active or billing_failure or suspended (if billing_failure or suspended - redirect to shop ineligible page)&lt;br&gt;3) If no active or billing_failure or suspended treat as no plan&lt;br&gt;4) If no pending, treat as no plan" style="text;html=1;strokeColor=none;fillColor=none;align=left;verticalAlign=middle;whiteSpace=wrap;rounded=0;" vertex="1" parent="1">
          <mxGeometry x="80" y="600" width="660" height="80" as="geometry" />
        </mxCell>
      </root>
    </mxGraphModel>
  </diagram>
</mxfile>
